<svg xmlns="http://www.w3.org/2000/svg" viewBox="-4395.636 39.849 214.727 48.081">
  <defs>
    <style>
      .cls-1 {
        fill: #fff;
      }
    </style>
  </defs>
  <g id="Group_1480" data-name="Group 1480" transform="translate(-4395.636 39.849)">
    <path id="Path_258" data-name="Path 258" class="cls-1" d="M194.252,19.149c-4.728-1.5-8.757-2.794-8.757-5.426,0,0-.161-3.868,5.587-3.868a19.956,19.956,0,0,1,6.93,1.5h0c6.232,2.471,8.81-2.417,9.563-4.513a1.331,1.331,0,0,0-.376-1.5,13.061,13.061,0,0,0-3.814-2.364A31.347,31.347,0,0,0,191.3.4c-9.831,0-16.654,5.909-16.654,14.344V14.9c0,10.476,14.612,13.914,15.526,14.075.054,0,.054,0,.107.054,4.513,1.343,8.434,2.579,8.434,5.265,0,0,.161,4.3-6.285,4.3a21.082,21.082,0,0,1-9.724-2.579c-5.695-2.256-8.434,2.256-9.294,4.19a1.312,1.312,0,0,0,.322,1.5c.322.269.7.645,1.289,1.074a31.681,31.681,0,0,0,17.137,5.265c10.691,0,17.352-5.641,17.352-14.774v-.161C209.562,23.769,194.252,19.149,194.252,19.149Z" transform="translate(-80.2 -0.185)"/>
    <path id="Path_259" data-name="Path 259" class="cls-1" d="M353.252,19.1c-4.728-1.5-8.757-2.794-8.757-5.426,0,0-.161-3.868,5.587-3.868a19.956,19.956,0,0,1,6.93,1.5h0c6.232,2.471,8.81-2.417,9.562-4.513a1.331,1.331,0,0,0-.376-1.5,13.061,13.061,0,0,0-3.814-2.364A30.47,30.47,0,0,0,350.3.3c-9.831,0-16.654,5.909-16.654,14.344V14.8c0,10.476,14.612,13.914,15.526,14.075.054,0,.054,0,.107.054,4.513,1.343,8.434,2.579,8.434,5.265,0,0,.161,4.3-6.285,4.3a21.082,21.082,0,0,1-9.724-2.579c-5.695-2.256-8.434,2.256-9.294,4.19a1.312,1.312,0,0,0,.322,1.5c.322.269.7.645,1.289,1.074a31.681,31.681,0,0,0,17.137,5.265c10.691,0,17.352-5.641,17.352-14.774v-.161C368.509,23.723,353.252,19.1,353.252,19.1Z" transform="translate(-153.782 -0.139)"/>
    <path id="Path_260" data-name="Path 260" class="cls-1" d="M113.52,0a16.246,16.246,0,0,0-10.583,3.761,8.574,8.574,0,0,0-1.021.86,1.562,1.562,0,0,1-2.256-.215c-.215-.322-.43-.591-.645-.86C96.866.322,92.3.215,90.043.376A1.462,1.462,0,0,0,88.7,1.827l.054,44.052a1.458,1.458,0,0,0,1.289,1.45c3.008.215,10.207,0,10.207-7.629V21.113c0-6.339,3.653-10.422,9.348-10.422s8.864,3.653,8.864,10.261V45.879a1.462,1.462,0,0,0,1.343,1.45c3.008.215,10.207-.161,10.207-7.629V17.836C130.066,6.823,123.727,0,113.52,0Z" transform="translate(-41.049 0)"/>
    <path id="Path_261" data-name="Path 261" class="cls-1" d="M284.81,28.311a5.5,5.5,0,0,0,5.533-5.587C290.343,11.711,282.607,0,268.317,0,255.424,0,245.7,10.315,245.7,23.96v.215c0,13.86,9.992,23.906,23.745,23.906a24.09,24.09,0,0,0,14.236-4.244,16.24,16.24,0,0,0,3.062-2.955,1.457,1.457,0,0,0,.054-1.665c-1.182-1.827-4.459-5.695-9.079-3.116a16.457,16.457,0,0,1-8.112,2.256c-6.285,0-10.852-3.814-12.087-9.992H284.81Zm-27.4-8.112v-.107h0c1.128-6.285,5.318-10.315,10.8-10.315,5.963,0,9.079,4.083,10.261,8.6a1.442,1.442,0,0,1-1.4,1.773Z" transform="translate(-113.705 0)"/>
    <path id="Path_262" data-name="Path 262" class="cls-1" d="M36.209,5.811C32.932,2.427,27.721.6,21.113.6A38.475,38.475,0,0,0,7.951,2.8a21.164,21.164,0,0,0-4.244,2.2,1.453,1.453,0,0,0-.591,1.665c.752,2.2,3.116,6.984,9.724,5.1h0a26.035,26.035,0,0,1,6.93-.913c4.351,0,9.509,1.4,10.153,7.629,0,0-4.889-.107-9.939,0C8.166,18.758,0,24.13,0,33.585v.161c0,9.939,8.434,14.5,16.278,14.5,6.876,0,10.906-2.74,12.732-4.459a1.388,1.388,0,0,1,2.1.269c2.256,3.223,6.447,3.546,8.6,3.492a1.434,1.434,0,0,0,1.4-1.45l.054-26C41.151,13.869,39.486,9.088,36.209,5.811ZM19.125,39.441c-4.781,0-7.9-2.364-7.9-6.071v-.161c0-3.922,3.546-6.447,9.294-6.715,3.6-.161,9.616-.054,9.616-.054l.054,4.137C30.192,35.68,25.518,39.441,19.125,39.441Z" transform="translate(0 -0.278)"/>
  </g>
</svg>
